<svg width="56" height="56" viewBox="0 0 56 56" fill="none" xmlns="http://www.w3.org/2000/svg">
<path d="M18.3691 27.8834C17.8752 27.8834 17.463 28.051 17.1325 28.3862C16.8019 28.7218 16.6366 29.1375 16.6366 29.6334V38.0917C16.6366 38.5875 16.8052 39.0031 17.1424 39.3383C17.4799 39.6739 17.8957 39.8417 18.3895 39.8417C18.8838 39.8417 19.2986 39.6739 19.6338 39.3383C19.969 39.0031 20.1366 38.5875 20.1366 38.0917V29.6334C20.1366 29.1375 19.9655 28.7218 19.6233 28.3862C19.2815 28.051 18.8634 27.8834 18.3691 27.8834ZM37.6104 15.3417C37.1161 15.3417 36.7037 15.5093 36.3731 15.8445C36.0426 16.1801 35.8773 16.5959 35.8773 17.0917V38.0917C35.8773 38.5875 36.0461 39.0031 36.3836 39.3383C36.7208 39.6739 37.1365 39.8417 37.6308 39.8417C38.1247 39.8417 38.5392 39.6739 38.8745 39.3383C39.2097 39.0031 39.3773 38.5875 39.3773 38.0917V17.0917C39.3773 16.5959 39.2064 16.1801 38.8645 15.8445C38.5223 15.5093 38.1043 15.3417 37.6104 15.3417ZM27.9895 32.9584C27.4909 32.9584 27.0763 33.126 26.7458 33.4612C26.4152 33.7968 26.25 34.2125 26.25 34.7084V38.0917C26.25 38.5875 26.4187 39.0031 26.7563 39.3383C27.0935 39.6739 27.5115 39.8417 28.0105 39.8417C28.509 39.8417 28.9236 39.6739 29.2541 39.3383C29.5847 39.0031 29.75 38.5875 29.75 38.0917V34.7084C29.75 34.2125 29.5812 33.7968 29.2436 33.4612C28.9065 33.126 28.4884 32.9584 27.9895 32.9584ZM10.6254 49.3489C9.55204 49.3489 8.62143 48.9547 7.83354 48.1665C7.04526 47.3786 6.65112 46.448 6.65112 45.3746V10.6255C6.65112 9.54823 7.04526 8.61432 7.83354 7.8237C8.62143 7.0327 9.55204 6.63721 10.6254 6.63721H45.3745C46.4518 6.63721 47.3857 7.0327 48.1763 7.8237C48.9673 8.61432 49.3628 9.54823 49.3628 10.6255V45.3746C49.3628 46.448 48.9673 47.3786 48.1763 48.1665C47.3857 48.9547 46.4518 49.3489 45.3745 49.3489H10.6254ZM10.6254 45.3746H45.3745V10.6255H10.6254V45.3746ZM28.0105 27.8834C28.509 27.8834 28.9236 27.7146 29.2541 27.377C29.5847 27.0399 29.75 26.6218 29.75 26.1229C29.75 25.6243 29.5812 25.2098 29.2436 24.8792C28.9065 24.5486 28.4884 24.3834 27.9895 24.3834C27.4909 24.3834 27.0763 24.5521 26.7458 24.8897C26.4152 25.2269 26.25 25.6449 26.25 26.1439C26.25 26.6424 26.4187 27.057 26.7563 27.3875C27.0935 27.7181 27.5115 27.8834 28.0105 27.8834Z" fill="#000804"/>
</svg>
