<svg width="56" height="56" viewBox="0 0 56 56" fill="none" xmlns="http://www.w3.org/2000/svg">
<path d="M13.0059 38.2235L22.0411 29.1743C22.4374 28.7776 22.9039 28.589 23.4406 28.6085C23.9768 28.6279 24.4556 28.836 24.8767 29.2326C25.2578 29.6293 25.4461 30.0934 25.4414 30.625C25.4367 31.1567 25.2363 31.6208 24.84 32.0175L14.3983 42.4451C14.0016 42.8418 13.5352 43.0425 12.9989 43.0471C12.4622 43.0518 11.9958 42.8558 11.5995 42.4591L5.78014 36.6258C5.37414 36.2291 5.17114 35.765 5.17114 35.2334C5.17114 34.7018 5.37414 34.2376 5.78014 33.841C6.17642 33.4443 6.64056 33.2557 7.17256 33.2751C7.70417 33.2946 8.16831 33.4832 8.56498 33.841L13.0059 38.2235ZM13.0059 19.5569L22.0411 10.5076C22.4374 10.111 22.9039 9.92235 23.4406 9.94179C23.9768 9.96124 24.4556 10.1693 24.8767 10.566C25.2578 10.9626 25.4461 11.4268 25.4414 11.9584C25.4367 12.49 25.2363 12.9541 24.84 13.3508L14.3983 23.7785C14.0016 24.1751 13.5352 24.3758 12.9989 24.3805C12.4622 24.3851 11.9958 24.1891 11.5995 23.7925L5.78014 17.9591C5.37414 17.5625 5.17114 17.0983 5.17114 16.5667C5.17114 16.0351 5.37414 15.571 5.78014 15.1743C6.17642 14.7776 6.64056 14.589 7.17256 14.6085C7.70417 14.6279 8.16831 14.8165 8.56498 15.1743L13.0059 19.5569ZM32.3761 39.3208C31.8153 39.3208 31.344 39.1287 30.9621 38.7445C30.5802 38.3606 30.3892 37.8868 30.3892 37.3229C30.3892 36.7594 30.5802 36.289 30.9621 35.9118C31.344 35.5346 31.8153 35.346 32.3761 35.346H49.6392C50.2 35.346 50.6713 35.5381 51.0532 35.9223C51.4351 36.3061 51.6261 36.78 51.6261 37.3439C51.6261 37.9074 51.4351 38.3777 51.0532 38.755C50.6713 39.1322 50.2 39.3208 49.6392 39.3208H32.3761ZM32.3761 20.6541C31.8153 20.6541 31.344 20.462 30.9621 20.0778C30.5802 19.694 30.3892 19.2201 30.3892 18.6562C30.3892 18.0927 30.5802 17.6223 30.9621 17.2451C31.344 16.8679 31.8153 16.6793 32.3761 16.6793H49.6392C50.2 16.6793 50.6713 16.8714 51.0532 17.2556C51.4351 17.6395 51.6261 18.1133 51.6261 18.6772C51.6261 19.2407 51.4351 19.7111 51.0532 20.0883C50.6713 20.4655 50.2 20.6541 49.6392 20.6541H32.3761Z" fill="#000804"/>
</svg>
