<svg width="56" height="56" viewBox="0 0 56 56" fill="none" xmlns="http://www.w3.org/2000/svg">
<path d="M17.6808 32.9885C16.9835 32.9885 16.3998 32.7513 15.9296 32.2769C15.4591 31.8024 15.2238 31.2181 15.2238 30.524C15.2238 29.8294 15.4597 29.2447 15.9314 28.7699C16.4027 28.2947 16.987 28.057 17.6843 28.057C18.3816 28.057 18.9653 28.2952 19.4355 28.7716C19.906 29.248 20.1413 29.8345 20.1413 30.531C20.1413 31.2205 19.9056 31.8024 19.4343 32.2769C18.9626 32.7513 18.3781 32.9885 17.6808 32.9885ZM28.1732 32.9885C27.4759 32.9885 26.8922 32.7513 26.422 32.2769C25.9515 31.8024 25.7162 31.2181 25.7162 30.524C25.7162 29.8294 25.9519 29.2447 26.4232 28.7699C26.8949 28.2947 27.4794 28.057 28.1767 28.057C28.874 28.057 29.4577 28.2952 29.9279 28.7716C30.3984 29.248 30.6337 29.8345 30.6337 30.531C30.6337 31.2205 30.398 31.8024 29.9267 32.2769C29.455 32.7513 28.8705 32.9885 28.1732 32.9885ZM38.2573 32.9885C37.56 32.9885 36.9763 32.7513 36.5061 32.2769C36.0356 31.8024 35.8003 31.2181 35.8003 30.524C35.8003 29.8294 36.036 29.2447 36.5073 28.7699C36.979 28.2947 37.5635 28.057 38.2608 28.057C38.9581 28.057 39.5418 28.2952 40.012 28.7716C40.4825 29.248 40.7178 29.8345 40.7178 30.531C40.7178 31.2205 40.4819 31.8024 40.0102 32.2769C39.5389 32.7513 38.9546 32.9885 38.2573 32.9885ZM10.6254 51.682C9.55204 51.682 8.62143 51.2879 7.83354 50.4996C7.04526 49.7117 6.65112 48.7811 6.65112 47.7078V11.792C6.65112 10.7147 7.04526 9.78082 7.83354 8.99021C8.62143 8.19921 9.55204 7.80371 10.6254 7.80371H14.2916V6.29579C14.2916 5.73774 14.4853 5.26621 14.8726 4.88121C15.2603 4.49621 15.7317 4.30371 16.2866 4.30371C16.8579 4.30371 17.3397 4.49621 17.7321 4.88121C18.1245 5.26621 18.3207 5.73774 18.3207 6.29579V7.80371H37.6792V6.29579C37.6792 5.73774 37.8731 5.26621 38.2608 4.88121C38.6481 4.49621 39.1193 4.30371 39.6742 4.30371C40.2459 4.30371 40.7277 4.49621 41.1197 4.88121C41.5121 5.26621 41.7083 5.73774 41.7083 6.29579V7.80371H45.3745C46.4518 7.80371 47.3857 8.19921 48.1763 8.99021C48.9673 9.78082 49.3628 10.7147 49.3628 11.792V47.7078C49.3628 48.7811 48.9673 49.7117 48.1763 50.4996C47.3857 51.2879 46.4518 51.682 45.3745 51.682H10.6254ZM10.6254 47.7078H45.3745V22.7499H10.6254V47.7078ZM10.6254 19.2499H45.3745V11.792H10.6254V19.2499Z" fill="#000804"/>
</svg>
