<svg width="56" height="56" viewBox="0 0 56 56" fill="none" xmlns="http://www.w3.org/2000/svg">
<path d="M8.29261 47.0157C7.21928 47.0157 6.28867 46.6216 5.50078 45.8333C4.7125 45.0454 4.31836 44.1148 4.31836 43.0415V12.959C4.31836 11.8817 4.7125 10.9478 5.50078 10.1572C6.28867 9.3662 7.21928 8.9707 8.29261 8.9707H49.6953C50.2553 8.9707 50.7287 9.16534 51.1157 9.55462C51.503 9.94428 51.6967 10.4205 51.6967 10.9832C51.6967 11.5463 51.503 12.0165 51.1157 12.3937C50.7287 12.7705 50.2553 12.959 49.6953 12.959H8.29261V43.0415H14.116C14.6371 43.0415 15.0778 43.231 15.4379 43.6102C15.7976 43.9894 15.9774 44.5074 15.9774 45.1642C15.9774 45.6884 15.7976 46.1281 15.4379 46.4831C15.0778 46.8382 14.6371 47.0157 14.116 47.0157H8.29261ZM47.9173 43.2503V20.2244H36.4629V43.2503H47.9173ZM35.5179 47.0157C34.7619 47.0157 34.1006 46.7322 33.534 46.1652C32.967 45.5986 32.6835 44.9373 32.6835 44.1813V19.2794C32.6835 18.5253 32.967 17.8667 33.534 17.3036C34.1006 16.7405 34.7619 16.459 35.5179 16.459H48.8623C49.6264 16.459 50.2899 16.7405 50.8526 17.3036C51.4153 17.8667 51.6967 18.5253 51.6967 19.2794V44.1813C51.6967 44.9373 51.4153 45.5986 50.8526 46.1652C50.2899 46.7322 49.6264 47.0157 48.8623 47.0157H35.5179ZM42.2123 26.2665C42.7112 26.2665 43.1462 26.0822 43.5172 25.7135C43.8882 25.3453 44.0737 24.9138 44.0737 24.4191C44.0737 23.9202 43.8882 23.4852 43.5172 23.1142C43.1462 22.7432 42.7019 22.5577 42.1843 22.5577C41.7083 22.5577 41.2859 22.7432 40.9173 23.1142C40.549 23.4852 40.3649 23.9295 40.3649 24.4471C40.3649 24.9231 40.549 25.3453 40.9173 25.7135C41.2859 26.0822 41.7176 26.2665 42.2123 26.2665ZM20.3384 45.5649L19.6804 43.1097C18.9715 42.5178 18.4105 41.7933 17.9975 40.9362C17.5841 40.0791 17.3774 39.1473 17.3774 38.1409C17.3774 37.136 17.5841 36.2054 17.9975 35.349C18.4105 34.4923 18.9715 33.7614 19.6804 33.1563L20.3384 30.715C20.4711 30.276 20.717 29.9221 21.0764 29.6534C21.4357 29.3846 21.8327 29.2503 22.2675 29.2503H25.6001C26.0349 29.2503 26.4319 29.3846 26.7913 29.6534C27.1506 29.9221 27.3964 30.276 27.5286 30.715L28.1872 33.1563C28.8958 33.761 29.4567 34.4915 29.8701 35.3479C30.2831 36.2038 30.4896 37.1342 30.4896 38.1391C30.4896 39.144 30.2831 40.0746 29.8701 40.931C29.4567 41.7877 28.8958 42.5139 28.1872 43.1097L27.5286 45.5649C27.3929 45.9927 27.1459 46.3414 26.7878 46.6109C26.4292 46.8808 26.0333 47.0157 25.6001 47.0157H22.2675C21.8339 47.0157 21.438 46.8808 21.0799 46.6109C20.7217 46.3414 20.4746 45.9927 20.3384 45.5649ZM23.9604 42.0836C25.1111 42.0836 26.0516 41.698 26.7819 40.9269C27.5123 40.1557 27.8774 39.2266 27.8774 38.1397C27.8774 37.0531 27.4831 36.122 26.6944 35.3461C25.9058 34.5703 24.9855 34.1824 23.9335 34.1824C22.882 34.1824 21.9619 34.5551 21.1732 35.3006C20.3841 36.0461 19.9896 36.989 19.9896 38.1292C19.9896 39.2694 20.3637 40.2136 21.1119 40.9619C21.8598 41.7097 22.8092 42.0836 23.9604 42.0836Z" fill="#000804"/>
</svg>
