<svg width="52" height="48" viewBox="0 0 52 48" fill="none" xmlns="http://www.w3.org/2000/svg">
<path d="M25.6459 43.4292C25.8372 43.4292 26.0592 43.3829 26.312 43.2903C26.5648 43.1978 26.7736 43.0691 26.9385 42.9042L46.5409 23.2435C47.0647 22.7193 47.4625 22.1186 47.7344 21.4416C48.0058 20.7649 48.1415 20.0692 48.1415 19.3544C48.1415 18.6462 48.0058 17.9414 47.7344 17.2398C47.4625 16.5383 47.0647 15.9211 46.5409 15.3883L36.4317 5.27917C35.9168 4.77361 35.3216 4.39444 34.6461 4.14167C33.971 3.88889 33.2951 3.7625 32.6184 3.7625C31.9426 3.7625 31.2776 3.88656 30.6234 4.13467C29.9693 4.38278 29.3942 4.75028 28.8979 5.23717L27.9454 6.20375L32.5869 10.8891C33.1201 11.4709 33.5928 12.1425 34.005 12.9039C34.4172 13.665 34.6234 14.5015 34.6234 15.4134C34.6234 16.9651 34.0169 18.3373 32.8039 19.53C31.5906 20.7231 30.2025 21.3197 28.6395 21.3197C27.6148 21.3197 26.7629 21.1645 26.0839 20.8542C25.4049 20.5438 24.7747 20.098 24.1934 19.5166L19.9624 15.2857L9.65552 25.5932C9.46108 25.7802 9.32497 25.9819 9.24719 26.1981C9.16941 26.4143 9.13052 26.6404 9.13052 26.8765C9.13052 27.3821 9.29464 27.7978 9.62286 28.1237C9.95108 28.4496 10.3664 28.6125 10.8689 28.6125C11.1006 28.6125 11.3252 28.5542 11.5426 28.4375C11.7604 28.3208 11.948 28.1847 12.1055 28.0292L18.787 21.3488C19.1397 20.9953 19.5494 20.8186 20.0161 20.8186C20.4828 20.8186 20.8911 20.9959 21.2411 21.3506C21.5911 21.7053 21.7661 22.1142 21.7661 22.5773C21.7661 23.0405 21.5911 23.4459 21.2411 23.7936L14.615 30.4191C14.4198 30.6147 14.2833 30.8323 14.2055 31.0718C14.1277 31.3118 14.0889 31.5467 14.0889 31.7765C14.0889 32.2467 14.2592 32.6536 14.5999 32.9974C14.9405 33.3408 15.3442 33.5125 15.8109 33.5125C16.0442 33.5125 16.2707 33.4635 16.4904 33.3655C16.7102 33.2679 16.9027 33.1409 17.0679 32.9846L23.7168 26.3212C24.0699 25.9677 24.4798 25.7933 24.9464 25.7979C25.4131 25.8026 25.8214 25.9753 26.1714 26.3159C26.5214 26.6659 26.6964 27.0743 26.6964 27.5409C26.6964 28.0076 26.5214 28.4159 26.1714 28.7659L19.5319 35.392C19.3846 35.5483 19.2599 35.7529 19.158 36.0057C19.0561 36.2584 19.0052 36.5015 19.0052 36.7348C19.0052 37.2015 19.1802 37.6098 19.5302 37.9598C19.8802 38.3098 20.2885 38.4848 20.7552 38.4848C20.9885 38.4848 21.204 38.4436 21.4015 38.3612C21.5995 38.2787 21.7924 38.1449 21.9802 37.9598L28.6658 31.2603C29.0134 30.9103 29.4212 30.7376 29.889 30.7423C30.3569 30.7469 30.7658 30.9196 31.1158 31.2603C31.4658 31.6196 31.6408 32.0308 31.6408 32.494C31.6408 32.9572 31.4658 33.3626 31.1158 33.7103L24.4302 40.3958C24.2451 40.5903 24.1113 40.8073 24.0289 41.0468C23.9464 41.2868 23.9052 41.5022 23.9052 41.6932C23.9052 42.2411 24.0607 42.6675 24.3719 42.9724C24.683 43.2769 25.1076 43.4292 25.6459 43.4292ZM25.6552 47.25C24.3256 47.25 23.1342 46.7713 22.0811 45.8138C21.028 44.8564 20.3857 43.6637 20.1544 42.2357C18.8504 42.0319 17.7491 41.4783 16.8504 40.5749C15.9512 39.6711 15.3998 38.5719 15.196 37.2773C13.9107 37.0646 12.8283 36.5034 11.9486 35.5938C11.0689 34.6846 10.5227 33.6023 10.31 32.347C8.8618 32.1156 7.66403 31.4879 6.71669 30.464C5.76936 29.4404 5.29569 28.225 5.29569 26.8176C5.29569 26.1195 5.43064 25.4217 5.70052 24.724C5.97002 24.0263 6.36844 23.4101 6.89577 22.8754L17.1776 12.5936C17.9383 11.8395 18.8681 11.4625 19.9671 11.4625C21.0665 11.4625 21.9979 11.8395 22.7613 12.5936L26.5885 16.4208C26.8996 16.7319 27.2415 16.9773 27.614 17.157C27.9866 17.3367 28.3541 17.4265 28.7165 17.4265C29.2139 17.4265 29.6837 17.2039 30.1259 16.7586C30.5676 16.3137 30.7885 15.8402 30.7885 15.3382C30.7885 15.1064 30.7158 14.84 30.5704 14.539C30.4249 14.238 30.2011 13.9317 29.8989 13.6202L21.5293 5.25C21.0334 4.75456 20.4431 4.38278 19.7583 4.13467C19.0738 3.88656 18.3839 3.7625 17.6886 3.7625C16.9836 3.7625 16.3067 3.88656 15.658 4.13467C15.0094 4.38278 14.4424 4.75378 13.957 5.24767L5.22744 13.9504C4.49594 14.6913 4.04736 15.5948 3.88169 16.6612C3.71602 17.7275 3.83775 18.7431 4.24686 19.7079C4.4133 20.182 4.38316 20.6519 4.15644 21.1178C3.92933 21.5837 3.57622 21.9092 3.09711 22.0943C2.61839 22.2794 2.13402 22.2516 1.64402 22.0109C1.15402 21.7698 0.818803 21.4076 0.638358 20.9242C0.019247 19.2018 -0.149531 17.4893 0.132025 15.7868C0.41358 14.0842 1.22091 12.5654 2.55402 11.2303L11.2089 2.56433C12.0832 1.69011 13.0978 1.04417 14.2528 0.626499C15.4078 0.208833 16.5725 0 17.7469 0C18.949 0 20.111 0.208833 21.2329 0.626499C22.3545 1.04417 23.3501 1.68078 24.2196 2.53633L25.1862 3.48833L26.1382 2.53633C27.0031 1.69011 28.0119 1.05583 29.1645 0.633499C30.3172 0.211166 31.4868 0 32.6733 0C33.8567 0 35.0132 0.215832 36.1429 0.647499C37.2731 1.07917 38.2752 1.73192 39.1494 2.60575L49.2983 12.7406C50.1818 13.6206 50.8443 14.6456 51.2857 15.8153C51.7275 16.9851 51.9484 18.1648 51.9484 19.3544C51.9484 20.5444 51.7205 21.7198 51.2647 22.8807C50.8093 24.0415 50.1398 25.0682 49.2563 25.9607L29.6119 45.5916C29.0784 46.1248 28.4721 46.5344 27.7931 46.8207C27.1145 47.1069 26.4019 47.25 25.6552 47.25Z" fill="#000804"/>
</svg>
