<svg width="56" height="56" viewBox="0 0 56 56" fill="none" xmlns="http://www.w3.org/2000/svg">
<path d="M22.6538 42.3067C21.5474 42.3067 20.6061 41.9186 19.8299 41.1424C19.0536 40.3662 18.6655 39.4248 18.6655 38.3185V34.815C16.3376 33.2213 14.5311 31.1911 13.2458 28.7244C11.9605 26.258 11.3179 23.6293 11.3179 20.8383C11.3179 16.2381 12.9442 12.3323 16.1969 9.12088C19.4495 5.90943 23.3907 4.30371 28.0205 4.30371C32.6498 4.30371 36.5863 5.92518 39.83 9.16812C43.0741 12.4111 44.6962 16.356 44.6962 21.0028C44.6962 23.7973 44.0475 26.4095 42.7502 28.8393C41.4529 31.2691 39.6476 33.261 37.3345 34.815V38.3185C37.3345 39.4248 36.9455 40.3662 36.1673 41.1424C35.3887 41.9186 34.4531 42.3067 33.3603 42.3067H22.6538ZM22.9315 38.3325H33.0686V34.0473C33.0686 33.6946 33.1458 33.387 33.3002 33.1245C33.4546 32.862 33.6673 32.6185 33.9384 32.3941L35.294 31.4561C37.009 30.265 38.3423 28.7456 39.294 26.898C40.246 25.0503 40.722 23.0808 40.722 20.9894C40.722 17.4466 39.4901 14.4424 37.0265 11.9769C34.5629 9.51093 31.5541 8.27796 28 8.27796C24.446 8.27796 21.4371 9.52163 18.9735 12.009C16.5099 14.4963 15.2781 17.51 15.2781 21.05C15.2781 23.1462 15.7541 25.1093 16.7061 26.9394C17.6577 28.7699 18.9943 30.277 20.716 31.4608L22.0617 32.3941C22.3328 32.6185 22.5455 32.8635 22.6999 33.1291C22.8543 33.3947 22.9315 33.7008 22.9315 34.0473V38.3325ZM23.1164 51.682C22.5521 51.682 22.0823 51.4901 21.707 51.1063C21.3314 50.7225 21.1435 50.2474 21.1435 49.6812C21.1435 49.115 21.3314 48.6468 21.707 48.2765C22.0823 47.9067 22.5521 47.7218 23.1164 47.7218H32.942C33.5051 47.7218 33.9771 47.9137 34.3578 48.2975C34.7385 48.6814 34.9289 49.1564 34.9289 49.7226C34.9289 50.2885 34.7385 50.7565 34.3578 51.1267C33.9771 51.4969 33.5051 51.682 32.942 51.682H23.1164Z" fill="#000804"/>
</svg>
