<svg width="56" height="56" viewBox="0 0 56 56" fill="none" xmlns="http://www.w3.org/2000/svg">
<path d="M23.3309 27.5268C20.6601 27.5268 18.4764 26.6786 16.7801 24.9823C15.0834 23.2855 14.235 21.1017 14.235 18.4309C14.235 15.76 15.0834 13.5754 16.7801 11.8771C18.4764 10.1784 20.6601 9.3291 23.3309 9.3291C26.0018 9.3291 28.1887 10.1784 29.8917 11.8771C31.595 13.5754 32.4467 15.76 32.4467 18.4309C32.4467 21.1017 31.595 23.2855 29.8917 24.9823C28.1887 26.6786 26.0018 27.5268 23.3309 27.5268ZM4.31836 42.9892V41.105C4.31836 39.6405 4.6913 38.321 5.43719 37.1465C6.18269 35.9725 7.19867 35.0891 8.48511 34.4964C10.7376 33.4947 13.0596 32.6733 15.4513 32.0324C17.8429 31.3915 20.2926 31.0711 22.8001 31.0711C23.3722 31.0711 23.8487 31.262 24.2299 31.6439C24.6106 32.0258 24.8009 32.4985 24.8009 33.062C24.8009 33.6352 24.6077 34.1138 24.2211 34.4976C23.8346 34.8814 23.3609 35.0734 22.8001 35.0734C20.5908 35.0734 18.428 35.3386 16.3117 35.869C14.1954 36.3995 12.1414 37.1627 10.1499 38.1586C9.61172 38.4666 9.16761 38.8831 8.81761 39.4081C8.46761 39.9335 8.29261 40.5172 8.29261 41.1593V42.9892H22.8724C23.4332 42.9892 23.9046 43.1811 24.2864 43.5649C24.6683 43.9488 24.8593 44.4226 24.8593 44.9865C24.8593 45.5504 24.6683 46.0208 24.2864 46.3976C23.9046 46.7748 23.4332 46.9634 22.8724 46.9634H8.29261C7.19011 46.9634 6.25211 46.5742 5.47861 45.7956C4.70511 45.017 4.31836 44.0816 4.31836 42.9892ZM38.8733 47.923L38.4789 45.4567C37.8365 45.2716 37.1843 44.999 36.5224 44.6389C35.8606 44.2787 35.3054 43.87 34.857 43.4127L32.6964 43.8654C32.3576 43.9525 32.0352 43.9311 31.7292 43.8012C31.4231 43.6717 31.1842 43.4605 31.0123 43.1677L30.6541 42.5564C30.4464 42.2176 30.3718 41.874 30.4301 41.5256C30.4884 41.1772 30.6483 40.8769 30.9096 40.6249L32.7926 38.8586C32.7055 38.5366 32.6643 38.0715 32.6689 37.4633C32.6736 36.855 32.7148 36.3952 32.7926 36.0837L30.8956 34.287C30.6444 34.0762 30.4894 33.7912 30.4307 33.4319C30.372 33.0721 30.4451 32.7418 30.65 32.4408L31.0123 31.7139C31.1846 31.4176 31.4115 31.2152 31.693 31.1067C31.9746 30.9986 32.2849 30.9834 32.624 31.0612L34.857 31.5139C35.3054 31.0659 35.8606 30.6595 36.5224 30.2947C37.1843 29.9299 37.8365 29.6594 38.4789 29.4833L38.8733 27.0309C38.953 26.5993 39.1455 26.2491 39.4508 25.9804C39.7561 25.712 40.1121 25.5779 40.5189 25.5779H41.0444C41.4407 25.5779 41.7907 25.7128 42.0944 25.9827C42.3982 26.2526 42.5934 26.5973 42.6801 27.0169L43.0791 29.4815C43.7095 29.6589 44.358 29.9299 45.0245 30.2947C45.6911 30.6595 46.2478 31.0659 46.6946 31.5139L48.871 31.0612C49.2008 30.9834 49.5201 31.0071 49.8289 31.1324C50.1376 31.258 50.3751 31.4713 50.5411 31.7723L50.8975 32.3655C51.1064 32.7167 51.1793 33.0642 51.1163 33.4079C51.0533 33.7513 50.8911 34.049 50.6298 34.301L48.7468 36.0814C48.8432 36.4002 48.8891 36.8622 48.8844 37.4674C48.8798 38.0729 48.8339 38.5366 48.7468 38.8586L50.6257 40.6209C50.8897 40.846 51.0533 41.1402 51.1163 41.5034C51.1793 41.8667 51.1089 42.1982 50.9051 42.498L50.5411 43.226C50.3669 43.5262 50.1372 43.7273 49.8522 43.8292C49.5667 43.9311 49.2545 43.9431 48.9154 43.8654L46.6964 43.4127C46.2484 43.87 45.6911 44.2787 45.0245 44.6389C44.358 44.999 43.7079 45.2716 43.0744 45.4567L42.6801 47.909C42.5922 48.3376 42.3949 48.6847 42.088 48.9503C41.7812 49.2159 41.4279 49.3487 41.0281 49.3487H40.5148C40.115 49.3487 39.7611 49.2157 39.4531 48.9497C39.1451 48.6841 38.9518 48.3419 38.8733 47.923ZM40.7767 42.0529C42.1471 42.0529 43.2535 41.6322 44.0959 40.7906C44.9386 39.949 45.3599 38.8399 45.3599 37.4633C45.3599 36.0866 44.9386 34.9773 44.0959 34.1354C43.2531 33.2938 42.1462 32.873 40.7749 32.873C39.4041 32.873 38.2956 33.2944 37.4494 34.1371C36.6031 34.9794 36.18 36.0858 36.18 37.4563C36.18 38.8376 36.6035 39.949 37.4505 40.7906C38.2975 41.6322 39.4063 42.0529 40.7767 42.0529ZM23.3309 23.5525C24.8122 23.5525 26.0372 23.0691 27.0059 22.1024C27.9743 21.1352 28.4584 19.9106 28.4584 18.4285C28.4584 16.9426 27.9751 15.717 27.0083 14.7518C26.0419 13.7865 24.8181 13.3039 23.3368 13.3039C21.8555 13.3039 20.6305 13.7867 19.6618 14.7524C18.6934 15.7184 18.2093 16.9414 18.2093 18.4215C18.2093 19.9059 18.6927 21.1321 19.6594 22.1C20.6258 23.0684 21.8497 23.5525 23.3309 23.5525Z" fill="#000804"/>
</svg>
