<svg width="49" height="50" viewBox="0 0 49 50" fill="none" xmlns="http://www.w3.org/2000/svg">
<path d="M7.92043 19.824C7.15821 19.6272 6.44149 19.3511 5.77026 18.9957C5.09904 18.6402 4.50521 18.1949 3.98876 17.6598L2.76085 18.1568C2.34435 18.3217 1.93971 18.3404 1.54693 18.2128C1.15376 18.0853 0.852764 17.8335 0.64393 17.4574L0.26243 16.8292C0.0481526 16.492 -0.034875 16.1154 0.0133472 15.6993C0.0615695 15.2835 0.250375 14.9256 0.579764 14.6253L1.70501 13.5642C1.51057 12.8176 1.41335 12.088 1.41335 11.3756C1.41335 10.6635 1.51057 9.93183 1.70501 9.1805L0.579764 8.0955C0.250375 7.80228 0.0615695 7.43828 0.0133472 7.0035C-0.034875 6.56833 0.0475693 6.1812 0.26068 5.84208L0.565764 5.334C0.769542 4.956 1.08221 4.69428 1.50376 4.54883C1.92532 4.40339 2.35057 4.41311 2.77951 4.578L3.98876 5.075C4.51454 4.53989 5.10993 4.09441 5.77493 3.73858C6.44032 3.38314 7.1551 3.10761 7.91926 2.912L8.07735 1.62808C8.15513 1.16336 8.3624 0.775832 8.69918 0.465499C9.03596 0.155166 9.43554 0 9.89793 0H10.4235C10.8746 0 11.268 0.154971 11.6036 0.464915C11.9392 0.774859 12.1494 1.15792 12.2342 1.61408L12.3905 2.91083C13.1434 3.10761 13.8555 3.38372 14.5267 3.73917C15.1979 4.09461 15.7917 4.53989 16.3082 5.075L17.5361 4.578C17.9495 4.41311 18.3557 4.39367 18.7547 4.51967C19.1537 4.64567 19.4597 4.89767 19.6728 5.27567L20.0508 5.84208C20.2546 6.1812 20.3347 6.57125 20.2912 7.01225C20.2476 7.45286 20.0563 7.81861 19.7172 8.1095L18.5342 9.17583C18.738 9.88944 18.8398 10.6126 18.8398 11.3452C18.8398 12.0779 18.738 12.8158 18.5342 13.559L19.7172 14.6393C20.047 14.9302 20.236 15.2863 20.2842 15.7074C20.3324 16.129 20.2546 16.5241 20.0508 16.8927L19.7312 17.3991C19.5181 17.7783 19.2031 18.0406 18.7862 18.186C18.3693 18.3314 17.9573 18.3217 17.5501 18.1568L16.3082 17.6598C15.7917 18.2338 15.1987 18.689 14.529 19.0254C13.859 19.3614 13.1465 19.6272 12.3917 19.8228L12.2342 21.1021C12.1471 21.5699 11.9359 21.959 11.6007 22.2693C11.2655 22.5797 10.868 22.7348 10.4083 22.7348H9.88626C9.4266 22.7348 9.02935 22.5818 8.69451 22.2757C8.35968 21.9701 8.15396 21.5851 8.07735 21.1208L7.92043 19.824ZM10.1447 16.6507C11.6003 16.6507 12.8465 16.1352 13.8833 15.1042C14.92 14.0737 15.4384 12.8285 15.4384 11.3686C15.4384 9.9087 14.9202 8.66308 13.8838 7.63175C12.8475 6.60003 11.5999 6.08417 10.1412 6.08417C8.68207 6.08417 7.43685 6.60158 6.40551 7.63642C5.37418 8.67086 4.85851 9.91608 4.85851 11.3721C4.85851 12.8281 5.37554 14.0717 6.4096 15.1031C7.44404 16.1348 8.68907 16.6507 10.1447 16.6507ZM32.1317 46.4841C31.0261 46.2119 29.9735 45.7895 28.9741 45.2171C27.975 44.645 27.1115 43.9032 26.3835 42.9917L24.8668 43.4723C24.4002 43.6279 23.9312 43.6205 23.4598 43.4502C22.9885 43.2798 22.623 42.9777 22.3632 42.5437L21.8872 41.7317C21.6181 41.2977 21.5224 40.8291 21.6002 40.3258C21.678 39.8226 21.9113 39.3968 22.3002 39.0483L23.4668 38.003C23.1277 36.9359 22.9582 35.8347 22.9582 34.6996C22.9582 33.564 23.1277 32.4676 23.4668 31.4102L22.3002 30.4185C21.9113 30.1074 21.678 29.6917 21.6002 29.1713C21.5224 28.651 21.6204 28.174 21.8942 27.7404L22.4215 26.8555C22.6517 26.4308 22.9905 26.1407 23.4377 25.9852C23.8849 25.8296 24.3418 25.8102 24.8085 25.9268L26.3835 26.3492C27.1504 25.4765 28.0237 24.7466 29.0033 24.1593C29.9833 23.5725 31.0282 23.1577 32.1381 22.9151L32.5423 21.2234C32.6575 20.7568 32.8997 20.3679 33.2692 20.0568C33.6386 19.7456 34.0761 19.5901 34.5817 19.5901H35.6317C36.1372 19.5901 36.5845 19.7456 36.9733 20.0568C37.3622 20.3679 37.615 20.7568 37.7317 21.2234L38.14 22.9151C39.3145 23.08 40.382 23.4679 41.3425 24.0788C42.3027 24.6902 43.1662 25.4469 43.9331 26.3492L45.5081 25.9268C45.9841 25.8102 46.4457 25.8393 46.8929 26.0143C47.3402 26.1893 47.6789 26.4907 47.9091 26.9185L48.4294 27.7352C48.6985 28.1629 48.7845 28.6296 48.6873 29.1352C48.59 29.6407 48.347 30.0685 47.9581 30.4185L46.8498 31.4102C47.1889 32.4676 47.3584 33.564 47.3584 34.6996C47.3584 35.8347 47.1889 36.9359 46.8498 38.003L48.0164 39.0437C48.4053 39.3906 48.6387 39.8168 48.7164 40.3223C48.7942 40.8279 48.6985 41.2961 48.4294 41.727L47.9674 42.5483C47.6983 42.9792 47.3281 43.2896 46.8568 43.4793C46.3854 43.6691 45.897 43.6668 45.3914 43.4723L43.9331 42.9917C43.2051 43.9421 42.3439 44.6936 41.3495 45.2463C40.3547 45.7993 39.2849 46.2119 38.14 46.4841L37.7317 48.1757C37.615 48.6424 37.372 49.0313 37.0025 49.3424C36.6331 49.6535 36.1956 49.8091 35.69 49.8091H34.64C34.1345 49.8091 33.6872 49.6535 33.2983 49.3424C32.9095 49.0313 32.6567 48.6424 32.54 48.1757L32.1317 46.4841ZM35.1586 42.6825C37.3815 42.6825 39.2664 41.9074 40.8134 40.3573C42.3604 38.8072 43.1339 36.9221 43.1339 34.7019C43.1339 32.4818 42.36 30.5958 40.8123 29.0442C39.2645 27.4925 37.3821 26.7167 35.165 26.7167C32.9375 26.7167 31.0502 27.4919 29.5032 29.0424C27.9562 30.5933 27.1827 32.479 27.1827 34.6996C27.1827 36.9271 27.9562 38.8144 29.5032 40.3614C31.0502 41.9088 32.9353 42.6825 35.1586 42.6825Z" fill="#000804"/>
</svg>
