<svg width="56" height="56" viewBox="0 0 56 56" fill="none" xmlns="http://www.w3.org/2000/svg">
<path d="M4.31836 12.959C4.31836 11.8817 4.7125 10.9478 5.50078 10.1572C6.28867 9.3662 7.21928 8.9707 8.29261 8.9707H47.7084C48.7857 8.9707 49.7196 9.3662 50.5102 10.1572C51.3012 10.9478 51.6967 11.8817 51.6967 12.959V20.7628C51.6967 21.324 51.5021 21.7955 51.1128 22.1774C50.7231 22.5593 50.2469 22.7502 49.6842 22.7502C49.1211 22.7502 48.6509 22.5593 48.2737 22.1774C47.8969 21.7955 47.7084 21.324 47.7084 20.7628V12.959H8.29261V20.7628C8.29261 21.324 8.10069 21.7955 7.71686 22.1774C7.33303 22.5593 6.85917 22.7502 6.29528 22.7502C5.73139 22.7502 5.26103 22.5593 4.88419 22.1774C4.50697 21.7955 4.31836 21.324 4.31836 20.7628V12.959ZM8.29261 47.0157C7.21928 47.0157 6.28867 46.6216 5.50078 45.8333C4.7125 45.0454 4.31836 44.1148 4.31836 43.0415V35.2376C4.31836 34.6765 4.51028 34.2049 4.89411 33.823C5.27794 33.4411 5.7518 33.2502 6.31569 33.2502C6.87958 33.2502 7.35014 33.4411 7.72736 33.823C8.10419 34.2049 8.29261 34.6765 8.29261 35.2376V43.0415H47.7084V35.2376C47.7084 34.6765 47.9004 34.2049 48.2842 33.823C48.668 33.4411 49.1415 33.2502 49.7046 33.2502C50.2677 33.2502 50.7404 33.4411 51.1227 33.823C51.5054 34.2049 51.6967 34.6765 51.6967 35.2376V43.0415C51.6967 44.1148 51.3012 45.0454 50.5102 45.8333C49.7196 46.6216 48.7857 47.0157 47.7084 47.0157H8.29261ZM23.3228 39.0835C23.6413 39.0835 23.9483 39.0058 24.2439 38.8502C24.5394 38.6946 24.7611 38.4613 24.9089 38.1502L32.6672 22.6335L35.7589 28.8169C35.9047 29.128 36.1234 29.3613 36.4151 29.5169C36.7068 29.6724 37.013 29.7502 37.3339 29.7502H49.9426C50.4318 29.7502 50.8464 29.5814 51.1863 29.2439C51.5266 28.9067 51.6967 28.4886 51.6967 27.9897C51.6967 27.4911 51.5266 27.0766 51.1863 26.746C50.8464 26.4155 50.4322 26.2502 49.9438 26.2502H38.4422L34.2422 17.9085C34.0975 17.5877 33.8803 17.3616 33.5906 17.2301C33.3009 17.0991 32.9968 17.0335 32.6783 17.0335C32.3598 17.0335 32.0527 17.0991 31.7572 17.2301C31.4616 17.3616 31.24 17.5877 31.0922 17.9085L23.3339 33.3669L20.2422 27.1835C20.0964 26.8724 19.8776 26.6391 19.5859 26.4835C19.2943 26.328 18.988 26.2502 18.6672 26.2502H6.06836C5.57253 26.2502 5.157 26.419 4.82178 26.7565C4.48617 27.0937 4.31836 27.5118 4.31836 28.0107C4.31836 28.5093 4.48617 28.9238 4.82178 29.2544C5.157 29.5849 5.57253 29.7502 6.06836 29.7502H17.5589L21.7589 38.1502C21.9035 38.4613 22.1207 38.6946 22.4104 38.8502C22.7002 39.0058 23.0043 39.0835 23.3228 39.0835Z" fill="#000804"/>
</svg>
