<svg width="48" height="48" viewBox="0 0 48 48" fill="none" xmlns="http://www.w3.org/2000/svg">
<path d="M21.565 40.1035L2.44551 20.5415C2.12951 20.2255 1.89468 19.8618 1.74101 19.4505C1.58701 19.0391 1.51001 18.6383 1.51001 18.248C1.51001 17.7746 1.60751 17.32 1.80251 16.884C1.99784 16.4483 2.29084 16.0645 2.68151 15.7325C5.73884 13.2231 9.06051 11.2811 12.6465 9.90648C16.2328 8.53182 20.0173 7.84448 24 7.84448C27.9827 7.84448 31.7672 8.53182 35.3535 9.90648C38.9395 11.2811 42.2612 13.2231 45.3185 15.7325C45.7092 16.0645 46.0022 16.4483 46.1975 16.884C46.3925 17.32 46.49 17.7746 46.49 18.248C46.49 18.6383 46.413 19.0391 46.259 19.4505C46.1053 19.8618 45.8745 20.2255 45.5665 20.5415L26.4465 40.1035C26.0988 40.4671 25.7138 40.7296 25.2915 40.891C24.8688 41.052 24.4383 41.1325 24 41.1325C23.5617 41.1325 23.1312 41.052 22.7085 40.891C22.2862 40.7296 21.905 40.4671 21.565 40.1035ZM10.448 24.023C12.4427 22.4453 14.5608 21.2285 16.8025 20.3725C19.0442 19.5161 21.4433 19.088 24 19.088C26.5567 19.088 28.9642 19.5161 31.2225 20.3725C33.4808 21.2285 35.6073 22.4453 37.602 24.023L43.086 18.3715C40.2097 16.1288 37.1923 14.3835 34.034 13.1355C30.8757 11.8871 27.531 11.263 24 11.263C20.469 11.263 17.1243 11.8871 13.966 13.1355C10.8077 14.3835 7.79434 16.1288 4.92601 18.3715L10.448 24.023Z" fill="#1E41C6"/>
</svg>
