<svg width="48" height="48" viewBox="0 0 48 48" fill="none" xmlns="http://www.w3.org/2000/svg">
<path d="M28.9186 29.524C29.9156 29.524 30.7657 29.1716 31.469 28.467C32.1724 27.762 32.524 26.9083 32.524 25.906C32.524 24.9033 32.172 24.0511 31.468 23.3495C30.764 22.6475 29.913 22.2965 28.9151 22.2965C28.4157 22.2965 27.9415 22.3881 27.4925 22.5715C27.0432 22.7548 26.6479 23.0298 26.3066 23.3965L20.5935 20.5435C20.6269 20.4585 20.6436 20.3696 20.6436 20.277V19.7255C20.6436 19.6305 20.6269 19.538 20.5935 19.448L26.3186 16.5915C26.6579 16.9661 27.0499 17.2451 27.4946 17.4285C27.9392 17.6118 28.4131 17.7035 28.9161 17.7035C29.9107 17.7035 30.7607 17.351 31.466 16.646C32.1714 15.9413 32.524 15.0878 32.524 14.0855C32.524 13.0828 32.1709 12.2306 31.4645 11.529C30.7585 10.827 29.9071 10.476 28.9101 10.476C27.9131 10.476 27.0635 10.8226 26.3615 11.516C25.6595 12.2093 25.3046 13.0453 25.2966 14.024V14.3C25.2966 14.3946 25.3132 14.4866 25.3465 14.576L19.5581 17.4685C19.2177 17.1088 18.8284 16.8376 18.39 16.655C17.9514 16.472 17.4886 16.3805 17.0016 16.3805C16.0032 16.3805 15.1502 16.7355 14.4426 17.4455C13.7346 18.1555 13.3805 19.0091 13.3805 20.0065C13.3805 21.0035 13.7349 21.855 14.4436 22.561C15.1526 23.2666 16.0047 23.6195 17.0001 23.6195C17.4877 23.6195 17.9509 23.528 18.3896 23.345C18.8282 23.1623 19.2177 22.8911 19.5581 22.5315L25.3465 25.424C25.3132 25.5133 25.2966 25.6053 25.2966 25.7V25.976C25.3046 26.9543 25.6611 27.7903 26.3661 28.484C27.0707 29.1773 27.9216 29.524 28.9186 29.524ZM11.701 36.299L6.61005 41.39C6.07138 41.9286 5.45188 42.0528 4.75155 41.7625C4.05122 41.4725 3.70105 40.9545 3.70105 40.2085V7.10746C3.70105 6.18413 4.03888 5.38363 4.71455 4.70596C5.38988 4.02796 6.18755 3.68896 7.10755 3.68896H40.8925C41.8159 3.68896 42.6164 4.02796 43.294 4.70596C43.972 5.38363 44.311 6.18413 44.311 7.10746V32.8925C44.311 33.8125 43.972 34.6101 43.294 35.2855C42.6164 35.9611 41.8159 36.299 40.8925 36.299H11.701ZM10.4011 32.8925H40.8925V7.10746H7.10755V36.486L10.4011 32.8925Z" fill="#1E41C6"/>
</svg>
