<svg width="1500" height="500" viewBox="0 0 1500 500" fill="none" xmlns="http://www.w3.org/2000/svg">
<path d="M200 200L450 350L0 500.004L200 200Z" fill="#E14A3E"/>
<path opacity="0.15" d="M200.001 200L100 350H450.001L200.001 200Z" fill="#1C1C1C"/>
<path d="M200 300L450 350L300 200L200 300Z" fill="#F2D725"/>
<path d="M50 100L200 300L300 200L50 100Z" fill="#4CAF31"/>
<path opacity="0.15" d="M50 100L300 300L340 240L300 200L50 100Z" fill="#1C1C1C"/>
<path d="M300 250L50 100L500 0L300 250Z" fill="#224ACD"/>
<path d="M1500 399.214H1489.67L1448.13 336.942V399.214H1437.8V320.897H1448.13L1489.67 383.057V320.897H1500V399.214Z" fill="#1C1C1C"/>
<path d="M1379.89 400C1372.55 400 1365.85 398.317 1359.8 394.951C1353.74 391.511 1348.94 386.761 1345.38 380.702C1341.9 374.568 1340.16 367.687 1340.16 360.057C1340.16 352.427 1341.9 345.583 1345.38 339.524C1348.94 333.39 1353.74 328.641 1359.8 325.275C1365.85 321.834 1372.55 320.113 1379.89 320.113C1387.31 320.113 1394.04 321.834 1400.09 325.275C1406.15 328.641 1410.92 333.353 1414.4 339.412C1417.88 345.471 1419.62 352.352 1419.62 360.057C1419.62 367.761 1417.88 374.643 1414.4 380.702C1410.92 386.761 1406.15 391.511 1400.09 394.951C1394.04 398.317 1387.31 400 1379.89 400ZM1379.89 391.137C1385.41 391.137 1390.37 389.865 1394.76 387.322C1399.22 384.778 1402.71 381.151 1405.2 376.438C1407.78 371.726 1409.06 366.265 1409.06 360.057C1409.06 353.774 1407.78 348.313 1405.2 343.675C1402.71 338.963 1399.26 335.335 1394.87 332.792C1390.48 330.249 1385.49 328.977 1379.89 328.977C1374.29 328.977 1369.3 330.249 1364.91 332.792C1360.52 335.335 1357.04 338.963 1354.46 343.675C1351.97 348.313 1350.72 353.774 1350.72 360.057C1350.72 366.265 1351.97 371.726 1354.46 376.438C1357.04 381.151 1360.52 384.778 1364.91 387.322C1369.37 389.865 1374.37 391.137 1379.89 391.137Z" fill="#1C1C1C"/>
<path d="M1321.88 321.01V399.214H1311.55V321.01H1321.88Z" fill="#1C1C1C"/>
<path d="M1294.29 321.01V329.313H1272.72V399.214H1262.39V329.313H1240.71V321.01H1294.29Z" fill="#1C1C1C"/>
<path d="M1174.56 321.01V370.49C1174.56 377.447 1176.26 382.608 1179.67 385.974C1183.15 389.34 1187.95 391.023 1194.08 391.023C1200.14 391.023 1204.87 389.34 1208.27 385.974C1211.75 382.608 1213.49 377.447 1213.49 370.49V321.01H1223.82V370.378C1223.82 376.886 1222.5 382.384 1219.85 386.872C1217.2 391.285 1213.61 394.576 1209.07 396.745C1204.6 398.915 1199.57 399.999 1193.97 399.999C1188.37 399.999 1183.3 398.915 1178.76 396.745C1174.29 394.576 1170.74 391.285 1168.09 386.872C1165.52 382.384 1164.23 376.886 1164.23 370.378V321.01H1174.56Z" fill="#1C1C1C"/>
<path d="M1121.25 390.911H1148.95V399.214H1110.92V321.01H1121.25V390.911Z" fill="#1C1C1C"/>
<path d="M1053.01 400C1045.67 400 1038.98 398.317 1032.92 394.951C1026.87 391.511 1022.06 386.761 1018.51 380.702C1015.03 374.568 1013.29 367.687 1013.29 360.057C1013.29 352.427 1015.03 345.583 1018.51 339.524C1022.06 333.39 1026.87 328.641 1032.92 325.275C1038.98 321.834 1045.67 320.113 1053.01 320.113C1060.43 320.113 1067.17 321.834 1073.22 325.275C1079.27 328.641 1084.04 333.353 1087.52 339.412C1091 345.471 1092.74 352.352 1092.74 360.057C1092.74 367.761 1091 374.643 1087.52 380.702C1084.04 386.761 1079.27 391.511 1073.22 394.951C1067.17 398.317 1060.43 400 1053.01 400ZM1053.01 391.137C1058.54 391.137 1063.5 389.865 1067.88 387.322C1072.35 384.778 1075.83 381.151 1078.33 376.438C1080.9 371.726 1082.19 366.265 1082.19 360.057C1082.19 353.774 1080.9 348.313 1078.33 343.675C1075.83 338.963 1072.39 335.335 1068 332.792C1063.61 330.249 1058.61 328.977 1053.01 328.977C1047.42 328.977 1042.42 330.249 1038.03 332.792C1033.64 335.335 1030.16 338.963 1027.59 343.675C1025.09 348.313 1023.84 353.774 1023.84 360.057C1023.84 366.265 1025.09 371.726 1027.59 376.438C1030.16 381.151 1033.64 384.778 1038.03 387.322C1042.5 389.865 1047.49 391.137 1053.01 391.137Z" fill="#1C1C1C"/>
<path d="M971.069 399.999C965.848 399.999 961.156 399.102 956.994 397.307C952.908 395.436 949.692 392.893 947.346 389.677C945 386.386 943.789 382.608 943.713 378.345H954.724C955.102 382.01 956.616 385.114 959.264 387.657C961.989 390.126 965.924 391.36 971.069 391.36C975.988 391.36 979.848 390.163 982.648 387.769C985.523 385.301 986.961 382.159 986.961 378.345C986.961 375.353 986.129 372.921 984.464 371.051C982.799 369.181 980.718 367.76 978.221 366.788C975.723 365.815 972.356 364.768 968.118 363.646C962.897 362.3 958.697 360.953 955.519 359.607C952.416 358.261 949.729 356.166 947.459 353.324C945.265 350.406 944.167 346.517 944.167 341.655C944.167 337.391 945.265 333.614 947.459 330.322C949.654 327.031 952.719 324.488 956.654 322.693C960.664 320.898 965.243 320 970.388 320C977.804 320 983.858 321.833 988.55 325.498C993.318 329.163 996.004 334.025 996.609 340.084H985.258C984.88 337.092 983.291 334.474 980.491 332.23C977.691 329.911 973.983 328.752 969.367 328.752C965.053 328.752 961.535 329.874 958.81 332.118C956.086 334.287 954.724 337.354 954.724 341.318C954.724 344.161 955.519 346.479 957.108 348.275C958.772 350.07 960.778 351.454 963.124 352.426C965.545 353.324 968.913 354.371 973.226 355.568C978.448 356.989 982.648 358.41 985.826 359.831C989.004 361.178 991.728 363.31 993.999 366.227C996.269 369.069 997.404 372.959 997.404 377.896C997.404 381.711 996.382 385.301 994.339 388.667C992.296 392.033 989.269 394.763 985.258 396.858C981.248 398.952 976.518 399.999 971.069 399.999Z" fill="#1C1C1C"/>
<path d="M879.239 399.214L860.397 367.237H847.911V399.214H837.581V321.01H863.121C869.099 321.01 874.132 322.02 878.218 324.039C882.38 326.059 885.483 328.789 887.526 332.23C889.569 335.671 890.591 339.598 890.591 344.011C890.591 349.397 889.001 354.146 885.823 358.261C882.72 362.375 878.029 365.105 871.748 366.451L891.612 399.214H879.239ZM847.911 359.046H863.121C868.721 359.046 872.921 357.699 875.721 355.007C878.521 352.239 879.921 348.574 879.921 344.011C879.921 339.373 878.521 335.783 875.721 333.24C872.996 330.696 868.797 329.425 863.121 329.425H847.911V359.046Z" fill="#1C1C1C"/>
<path d="M785.174 329.313V355.455H814.005V363.87H785.174V390.799H817.411V399.214H774.844V320.897H817.411V329.313H785.174Z" fill="#1C1C1C"/>
<path d="M757.466 343.899C757.466 350.406 755.196 355.829 750.655 360.168C746.19 364.432 739.342 366.563 730.11 366.563H714.899V399.214H704.57V321.01H730.11C739.039 321.01 745.812 323.142 750.428 327.405C755.12 331.669 757.466 337.167 757.466 343.899ZM730.11 358.148C735.861 358.148 740.099 356.914 742.823 354.446C745.547 351.977 746.909 348.462 746.909 343.899C746.909 334.249 741.309 329.425 730.11 329.425H714.899V358.148H730.11Z" fill="#1C1C1C"/>
<path d="M633.534 321.01V370.49C633.534 377.447 635.237 382.608 638.642 385.974C642.123 389.34 646.928 391.023 653.058 391.023C659.112 391.023 663.841 389.34 667.247 385.974C670.728 382.608 672.468 377.447 672.468 370.49V321.01H682.798V370.378C682.798 376.886 681.473 382.384 678.825 386.872C676.176 391.285 672.582 394.576 668.041 396.745C663.577 398.915 658.544 399.999 652.944 399.999C647.345 399.999 642.274 398.915 637.734 396.745C633.269 394.576 629.713 391.285 627.064 386.872C624.491 382.384 623.205 376.886 623.205 370.378V321.01H633.534Z" fill="#1C1C1C"/>
<path d="M577.356 399.999C572.135 399.999 567.443 399.102 563.281 397.307C559.194 395.436 555.978 392.893 553.632 389.677C551.286 386.386 550.076 382.608 550 378.345H561.011C561.389 382.01 562.902 385.114 565.551 387.657C568.275 390.126 572.21 391.36 577.356 391.36C582.275 391.36 586.134 390.163 588.934 387.769C591.81 385.301 593.248 382.159 593.248 378.345C593.248 375.353 592.415 372.921 590.75 371.051C589.086 369.181 587.005 367.76 584.507 366.788C582.01 365.815 578.643 364.768 574.405 363.646C569.183 362.3 564.983 360.953 561.805 359.607C558.702 358.261 556.016 356.166 553.746 353.324C551.551 350.406 550.454 346.517 550.454 341.655C550.454 337.391 551.551 333.614 553.746 330.322C555.94 327.031 559.005 324.488 562.94 322.693C566.951 320.898 571.529 320 576.675 320C584.091 320 590.145 321.833 594.837 325.498C599.604 329.163 602.291 334.025 602.896 340.084H591.545C591.167 337.092 589.577 334.474 586.777 332.23C583.978 329.911 580.27 328.752 575.653 328.752C571.34 328.752 567.821 329.874 565.097 332.118C562.373 334.287 561.011 337.354 561.011 341.318C561.011 344.161 561.805 346.479 563.394 348.275C565.059 350.07 567.064 351.454 569.41 352.426C571.832 353.324 575.199 354.371 579.513 355.568C584.734 356.989 588.934 358.41 592.112 359.831C595.291 361.178 598.015 363.31 600.285 366.227C602.555 369.069 603.691 372.959 603.691 377.896C603.691 381.711 602.669 385.301 600.626 388.667C598.583 392.033 595.556 394.763 591.545 396.858C587.534 398.952 582.805 399.999 577.356 399.999Z" fill="#1C1C1C"/>
<path d="M1463.37 218.565H1400.66L1389.89 248.523H1364.24L1417.9 101.688H1446.34L1500 248.523H1474.14L1463.37 218.565ZM1456.47 198.945L1432.12 130.801L1407.56 198.945H1456.47Z" fill="#1C1C1C"/>
<path d="M1310.41 248.523L1275.93 189.873H1257.18V248.523H1232.61V101.898H1284.33C1295.82 101.898 1305.52 103.867 1313.42 107.806C1321.47 111.744 1327.43 117.018 1331.31 123.628C1335.33 130.239 1337.34 137.623 1337.34 145.78C1337.34 155.344 1334.47 164.064 1328.72 171.941C1323.12 179.676 1314.43 184.95 1302.65 187.763L1339.71 248.523H1310.41ZM1257.18 170.675H1284.33C1293.53 170.675 1300.42 168.424 1305.02 163.924C1309.76 159.423 1312.13 153.375 1312.13 145.78C1312.13 138.185 1309.83 132.278 1305.23 128.059C1300.64 123.699 1293.67 121.519 1284.33 121.519H1257.18V170.675Z" fill="#1C1C1C"/>
<path d="M1139.86 121.308V164.346H1191.58V183.966H1139.86V228.903H1198.05V248.523H1115.3V101.688H1198.05V121.308H1139.86Z" fill="#1C1C1C"/>
<path d="M1090.45 101.898L1034.2 248.523H1005.76L949.303 101.898H975.592L1019.98 223.839L1064.59 101.898H1090.45Z" fill="#1C1C1C"/>
<path d="M885.877 229.114H936.517V248.523H861.312V101.898H885.877V229.114Z" fill="#1C1C1C"/>
<path d="M756.33 250C742.396 250 729.538 246.835 717.758 240.506C706.122 234.037 696.856 225.105 689.96 213.713C683.208 202.18 679.833 189.241 679.833 174.895C679.833 160.549 683.208 147.679 689.96 136.287C696.856 124.895 706.122 116.034 717.758 109.705C729.538 103.235 742.396 100 756.33 100C770.409 100 783.266 103.235 794.903 109.705C806.683 116.034 815.949 124.895 822.701 136.287C829.452 147.679 832.828 160.549 832.828 174.895C832.828 189.241 829.452 202.18 822.701 213.713C815.949 225.105 806.683 234.037 794.903 240.506C783.266 246.835 770.409 250 756.33 250ZM756.33 229.114C766.243 229.114 775.078 226.934 782.835 222.574C790.593 218.073 796.627 211.744 800.936 203.587C805.39 195.288 807.616 185.724 807.616 174.895C807.616 164.065 805.39 154.571 800.936 146.414C796.627 138.256 790.593 131.997 782.835 127.637C775.078 123.277 766.243 121.097 756.33 121.097C746.418 121.097 737.583 123.277 729.826 127.637C722.068 131.997 715.963 138.256 711.509 146.414C707.199 154.571 705.045 164.065 705.045 174.895C705.045 185.724 707.199 195.288 711.509 203.587C715.963 211.744 722.068 218.073 729.826 222.574C737.583 226.934 746.418 229.114 756.33 229.114Z" fill="#1C1C1C"/>
<path d="M603.01 250C592.954 250 583.903 248.312 575.858 244.937C567.814 241.421 561.493 236.498 556.896 230.169C552.299 223.84 550 216.456 550 208.017H576.289C576.864 214.346 579.378 219.55 583.831 223.629C588.429 227.707 594.821 229.747 603.01 229.747C611.486 229.747 618.094 227.778 622.835 223.84C627.575 219.761 629.946 214.557 629.946 208.228C629.946 203.305 628.437 199.297 625.421 196.203C622.547 193.108 618.884 190.717 614.431 189.03C610.121 187.342 604.087 185.513 596.33 183.544C586.561 181.013 578.588 178.481 572.411 175.949C566.377 173.277 561.205 169.198 556.896 163.713C552.586 158.228 550.431 150.914 550.431 141.772C550.431 133.333 552.586 125.949 556.896 119.62C561.205 113.291 567.239 108.439 574.997 105.063C582.754 101.688 591.733 100 601.932 100C616.442 100 628.294 103.587 637.488 110.759C646.826 117.792 651.997 127.496 653.003 139.873H625.852C625.421 134.529 622.835 129.958 618.094 126.16C613.353 122.363 607.104 120.464 599.347 120.464C592.307 120.464 586.561 122.222 582.108 125.738C577.654 129.255 575.427 134.318 575.427 140.928C575.427 145.429 576.792 149.156 579.522 152.11C582.395 154.923 585.986 157.173 590.296 158.861C594.606 160.549 600.496 162.377 607.966 164.346C617.878 167.018 625.923 169.691 632.101 172.363C638.422 175.035 643.737 179.184 648.047 184.81C652.5 190.295 654.727 197.679 654.727 206.962C654.727 214.416 652.644 221.449 648.478 228.059C644.455 234.669 638.493 240.014 630.592 244.093C622.835 248.031 613.641 250 603.01 250Z" fill="#1C1C1C"/>
</svg>
